<mxfile host="www.draw.io" modified="2019-10-29T02:58:41.371Z" agent="Mozilla/5.0 (X11; Ubuntu; Linux x86_64; rv:68.0) Gecko/20100101 Firefox/68.0" etag="VRUK71GmD9I_hRKebQjS" version="12.1.8" type="github" pages="1">
  <diagram id="6a731a19-8d31-9384-78a2-239565b7b9f0" name="Page-1">
    <mxGraphModel dx="901" dy="731" grid="1" gridSize="10" guides="1" tooltips="1" connect="1" arrows="1" fold="1" page="1" pageScale="1" pageWidth="1169" pageHeight="827" background="#ffffff" math="0" shadow="0">
      <root>
        <mxCell id="0"/>
        <mxCell id="1" parent="0"/>
        <mxCell id="1350" value="测试" style="ellipse;whiteSpace=wrap;html=1;shadow=0;fontFamily=Helvetica;fontSize=20;fontColor=#FFFFFF;align=center;strokeWidth=3;fillColor=#1699D3;strokeColor=none;" parent="1" vertex="1">
          <mxGeometry x="358.5" y="321.5" width="120" height="120" as="geometry"/>
        </mxCell>
        <mxCell id="1351" value="学生个人&lt;br&gt;面板" style="ellipse;whiteSpace=wrap;html=1;shadow=0;fontFamily=Helvetica;fontSize=20;fontColor=#FFFFFF;align=center;strokeWidth=3;fillColor=#F08705;strokeColor=none;gradientColor=none;" parent="1" vertex="1">
          <mxGeometry x="1094.5" y="396.5" width="120" height="120" as="geometry"/>
        </mxCell>
        <mxCell id="1352" value="管理员后台" style="ellipse;whiteSpace=wrap;html=1;shadow=0;fontFamily=Helvetica;fontSize=20;fontColor=#FFFFFF;align=center;strokeWidth=3;fillColor=#E85642;strokeColor=none;" parent="1" vertex="1">
          <mxGeometry x="1910" y="361.5" width="120" height="120" as="geometry"/>
        </mxCell>
        <mxCell id="1353" value="企业管理&lt;br&gt;后台" style="ellipse;whiteSpace=wrap;html=1;shadow=0;fontFamily=Helvetica;fontSize=20;fontColor=#FFFFFF;align=center;strokeWidth=3;fillColor=#1699D3;strokeColor=none;" parent="1" vertex="1">
          <mxGeometry x="1833.5" y="838" width="120" height="120" as="geometry"/>
        </mxCell>
        <mxCell id="1354" value="行业新闻" style="ellipse;whiteSpace=wrap;html=1;shadow=0;fontFamily=Helvetica;fontSize=20;fontColor=#FFFFFF;align=center;strokeWidth=3;fillColor=#736ca8;strokeColor=none;" parent="1" vertex="1">
          <mxGeometry x="1750" y="1186" width="120" height="120" as="geometry"/>
        </mxCell>
        <mxCell id="1355" value="积分" style="ellipse;whiteSpace=wrap;html=1;shadow=0;fontFamily=Helvetica;fontSize=20;fontColor=#FFFFFF;align=center;strokeWidth=3;fillColor=#F08705;strokeColor=none;" parent="1" vertex="1">
          <mxGeometry x="1163.5" y="1309" width="120" height="120" as="geometry"/>
        </mxCell>
        <mxCell id="1356" value="招聘" style="ellipse;whiteSpace=wrap;html=1;shadow=0;fontFamily=Helvetica;fontSize=20;fontColor=#FFFFFF;align=center;strokeWidth=3;fillColor=#E85642;strokeColor=none;" parent="1" vertex="1">
          <mxGeometry x="410" y="1341" width="120" height="120" as="geometry"/>
        </mxCell>
        <mxCell id="1357" value="我的充值" style="rounded=1;fillColor=#f5af58;strokeColor=none;strokeWidth=3;shadow=0;html=1;fontColor=#FFFFFF;" parent="1" vertex="1">
          <mxGeometry x="969.5" y="539" width="120" height="40" as="geometry"/>
        </mxCell>
        <mxCell id="1359" style="endArrow=none;strokeWidth=6;strokeColor=#1699D3;html=1;" parent="1" source="1515" target="1350" edge="1">
          <mxGeometry relative="1" as="geometry"/>
        </mxCell>
        <mxCell id="1360" style="endArrow=none;strokeWidth=6;strokeColor=#f08705;html=1;" parent="1" source="1515" target="1351" edge="1">
          <mxGeometry relative="1" as="geometry"/>
        </mxCell>
        <mxCell id="1361" style="endArrow=none;strokeWidth=6;strokeColor=#E85642;html=1;" parent="1" source="1515" target="1352" edge="1">
          <mxGeometry relative="1" as="geometry"/>
        </mxCell>
        <mxCell id="1362" style="endArrow=none;strokeWidth=6;strokeColor=#1699D3;html=1;" parent="1" source="1515" target="1353" edge="1">
          <mxGeometry relative="1" as="geometry"/>
        </mxCell>
        <mxCell id="1363" style="endArrow=none;strokeWidth=6;strokeColor=#736CA8;html=1;" parent="1" source="1515" target="1516" edge="1">
          <mxGeometry relative="1" as="geometry"/>
        </mxCell>
        <mxCell id="1364" style="endArrow=none;strokeWidth=6;strokeColor=#736ca8;html=1;" parent="1" source="1515" target="1354" edge="1">
          <mxGeometry relative="1" as="geometry"/>
        </mxCell>
        <mxCell id="1365" value="" style="edgeStyle=none;endArrow=none;strokeWidth=6;strokeColor=#F08705;html=1;" parent="1" source="1515" target="1355" edge="1">
          <mxGeometry x="181" y="226.5" width="100" height="100" as="geometry">
            <mxPoint x="181" y="326.5" as="sourcePoint"/>
            <mxPoint x="281" y="226.5" as="targetPoint"/>
          </mxGeometry>
        </mxCell>
        <mxCell id="1366" value="" style="edgeStyle=none;endArrow=none;strokeWidth=6;strokeColor=#E85642;html=1;" parent="1" source="1515" target="1356" edge="1">
          <mxGeometry x="181" y="226.5" width="100" height="100" as="geometry">
            <mxPoint x="181" y="326.5" as="sourcePoint"/>
            <mxPoint x="281" y="226.5" as="targetPoint"/>
          </mxGeometry>
        </mxCell>
        <mxCell id="1370" value="排行榜" style="rounded=1;fillColor=#64BBE2;strokeColor=none;strokeWidth=3;shadow=0;html=1;fontColor=#FFFFFF;" parent="1" vertex="1">
          <mxGeometry x="168.5" y="339" width="130" height="40" as="geometry"/>
        </mxCell>
        <mxCell id="1371" value="相关知识介绍" style="rounded=1;fillColor=#64BBE2;strokeColor=none;strokeWidth=3;shadow=0;html=1;fontColor=#FFFFFF;" parent="1" vertex="1">
          <mxGeometry x="202" y="251.5" width="130" height="40" as="geometry"/>
        </mxCell>
        <mxCell id="1372" value="阶段测试" style="rounded=1;fillColor=#64BBE2;strokeColor=none;strokeWidth=3;shadow=0;html=1;fontColor=#FFFFFF;" parent="1" vertex="1">
          <mxGeometry x="280" y="139.5" width="130" height="40" as="geometry"/>
        </mxCell>
        <mxCell id="1373" value="自我测试" style="rounded=1;fillColor=#64BBE2;strokeColor=none;strokeWidth=3;shadow=0;html=1;fontColor=#FFFFFF;" parent="1" vertex="1">
          <mxGeometry x="443.5" y="196.5" width="130" height="40" as="geometry"/>
        </mxCell>
        <mxCell id="1374" value="进度测试" style="rounded=1;fillColor=#64BBE2;strokeColor=none;strokeWidth=3;shadow=0;html=1;fontColor=#FFFFFF;" parent="1" vertex="1">
          <mxGeometry x="498.5" y="256.5" width="130" height="40" as="geometry"/>
        </mxCell>
        <mxCell id="1375" value="面试测试" style="rounded=1;fillColor=#64BBE2;strokeColor=none;strokeWidth=3;shadow=0;html=1;fontColor=#FFFFFF;" parent="1" vertex="1">
          <mxGeometry x="533.5" y="316.5" width="130" height="40" as="geometry"/>
        </mxCell>
        <mxCell id="1376" value="导出测试题" style="rounded=1;fillColor=#64BBE2;strokeColor=none;strokeWidth=3;shadow=0;html=1;fontColor=#FFFFFF;" parent="1" vertex="1">
          <mxGeometry x="548.5" y="396.5" width="130" height="40" as="geometry"/>
        </mxCell>
        <mxCell id="1377" value="" style="edgeStyle=none;endArrow=none;strokeWidth=3;strokeColor=#64BBE2;html=1;" parent="1" source="1350" target="1376" edge="1">
          <mxGeometry x="-386.5" y="106.5" width="100" height="100" as="geometry">
            <mxPoint x="-386.5" y="206.5" as="sourcePoint"/>
            <mxPoint x="-286.5" y="106.5" as="targetPoint"/>
          </mxGeometry>
        </mxCell>
        <mxCell id="1382" value="" style="edgeStyle=none;endArrow=none;strokeWidth=3;strokeColor=#64BBE2;html=1;" parent="1" source="1350" target="1370" edge="1">
          <mxGeometry x="-386.5" y="106.5" width="100" height="100" as="geometry">
            <mxPoint x="-386.5" y="206.5" as="sourcePoint"/>
            <mxPoint x="-286.5" y="106.5" as="targetPoint"/>
          </mxGeometry>
        </mxCell>
        <mxCell id="1383" value="" style="edgeStyle=none;endArrow=none;strokeWidth=3;strokeColor=#64BBE2;html=1;" parent="1" source="1350" target="1371" edge="1">
          <mxGeometry x="-386.5" y="106.5" width="100" height="100" as="geometry">
            <mxPoint x="-386.5" y="206.5" as="sourcePoint"/>
            <mxPoint x="-286.5" y="106.5" as="targetPoint"/>
          </mxGeometry>
        </mxCell>
        <mxCell id="1384" value="" style="edgeStyle=none;endArrow=none;strokeWidth=3;strokeColor=#64BBE2;html=1;entryX=0.5;entryY=1;entryDx=0;entryDy=0;" parent="1" source="1350" target="1372" edge="1">
          <mxGeometry x="-386.5" y="106.5" width="100" height="100" as="geometry">
            <mxPoint x="-386.5" y="206.5" as="sourcePoint"/>
            <mxPoint x="339.68888888888887" y="176.5" as="targetPoint"/>
          </mxGeometry>
        </mxCell>
        <mxCell id="1385" value="" style="edgeStyle=none;endArrow=none;strokeWidth=3;strokeColor=#64BBE2;html=1;" parent="1" source="1350" target="1373" edge="1">
          <mxGeometry x="-386.5" y="106.5" width="100" height="100" as="geometry">
            <mxPoint x="-386.5" y="206.5" as="sourcePoint"/>
            <mxPoint x="-286.5" y="106.5" as="targetPoint"/>
          </mxGeometry>
        </mxCell>
        <mxCell id="1386" value="" style="edgeStyle=none;endArrow=none;strokeWidth=3;strokeColor=#64BBE2;html=1;" parent="1" source="1350" target="1374" edge="1">
          <mxGeometry x="-386.5" y="106.5" width="100" height="100" as="geometry">
            <mxPoint x="-386.5" y="206.5" as="sourcePoint"/>
            <mxPoint x="-286.5" y="106.5" as="targetPoint"/>
          </mxGeometry>
        </mxCell>
        <mxCell id="1387" value="" style="edgeStyle=none;endArrow=none;strokeWidth=3;strokeColor=#64BBE2;html=1;" parent="1" source="1350" target="1375" edge="1">
          <mxGeometry x="-386.5" y="106.5" width="100" height="100" as="geometry">
            <mxPoint x="-386.5" y="206.5" as="sourcePoint"/>
            <mxPoint x="-286.5" y="106.5" as="targetPoint"/>
          </mxGeometry>
        </mxCell>
        <mxCell id="1388" value="我的测试" style="rounded=1;fillColor=#f5af58;strokeColor=none;strokeWidth=3;shadow=0;html=1;fontColor=#FFFFFF;" parent="1" vertex="1">
          <mxGeometry x="909.5" y="469" width="120" height="40" as="geometry"/>
        </mxCell>
        <mxCell id="1389" value="我的提问" style="rounded=1;fillColor=#f5af58;strokeColor=none;strokeWidth=3;shadow=0;html=1;fontColor=#FFFFFF;" parent="1" vertex="1">
          <mxGeometry x="899.5" y="399" width="120" height="40" as="geometry"/>
        </mxCell>
        <mxCell id="1390" value="我的回答" style="rounded=1;fillColor=#f5af58;strokeColor=none;strokeWidth=3;shadow=0;html=1;fontColor=#FFFFFF;" parent="1" vertex="1">
          <mxGeometry x="919.5" y="329" width="120" height="40" as="geometry"/>
        </mxCell>
        <mxCell id="1391" value="我的积分" style="rounded=1;fillColor=#f5af58;strokeColor=none;strokeWidth=3;shadow=0;html=1;fontColor=#FFFFFF;" parent="1" vertex="1">
          <mxGeometry x="959.5" y="269" width="120" height="40" as="geometry"/>
        </mxCell>
        <mxCell id="1392" value="我的学习旅程" style="rounded=1;fillColor=#f5af58;strokeColor=none;strokeWidth=3;shadow=0;html=1;fontColor=#FFFFFF;" parent="1" vertex="1">
          <mxGeometry x="1029.5" y="209" width="120" height="40" as="geometry"/>
        </mxCell>
        <mxCell id="1393" value="我的简历" style="rounded=1;fillColor=#f5af58;strokeColor=none;strokeWidth=3;shadow=0;html=1;fontColor=#FFFFFF;" parent="1" vertex="1">
          <mxGeometry x="1159.5" y="209" width="120" height="40" as="geometry"/>
        </mxCell>
        <mxCell id="1395" value="我的关注" style="rounded=1;fillColor=#f5af58;strokeColor=none;strokeWidth=3;shadow=0;html=1;fontColor=#FFFFFF;" parent="1" vertex="1">
          <mxGeometry x="1279.5" y="409" width="120" height="40" as="geometry"/>
        </mxCell>
        <mxCell id="1396" value="我的播放记录" style="rounded=1;fillColor=#f5af58;strokeColor=none;strokeWidth=3;shadow=0;html=1;fontColor=#FFFFFF;" parent="1" vertex="1">
          <mxGeometry x="1307.5" y="489" width="120" height="40" as="geometry"/>
        </mxCell>
        <mxCell id="1399" value="" style="edgeStyle=none;endArrow=none;strokeWidth=3;strokeColor=#F5AF58;html=1;" parent="1" source="1351" target="1357" edge="1">
          <mxGeometry x="-0.5" y="149" width="100" height="100" as="geometry">
            <mxPoint x="-0.5" y="249" as="sourcePoint"/>
            <mxPoint x="99.5" y="149" as="targetPoint"/>
          </mxGeometry>
        </mxCell>
        <mxCell id="1400" value="" style="edgeStyle=none;endArrow=none;strokeWidth=3;strokeColor=#F5AF58;html=1;" parent="1" source="1351" target="1388" edge="1">
          <mxGeometry x="-0.5" y="149" width="100" height="100" as="geometry">
            <mxPoint x="-0.5" y="249" as="sourcePoint"/>
            <mxPoint x="99.5" y="149" as="targetPoint"/>
          </mxGeometry>
        </mxCell>
        <mxCell id="1401" value="" style="edgeStyle=none;endArrow=none;strokeWidth=3;strokeColor=#F5AF58;html=1;" parent="1" source="1351" target="1389" edge="1">
          <mxGeometry x="-0.5" y="149" width="100" height="100" as="geometry">
            <mxPoint x="-0.5" y="249" as="sourcePoint"/>
            <mxPoint x="99.5" y="149" as="targetPoint"/>
          </mxGeometry>
        </mxCell>
        <mxCell id="1402" value="" style="edgeStyle=none;endArrow=none;strokeWidth=3;strokeColor=#F5AF58;html=1;" parent="1" source="1351" target="1390" edge="1">
          <mxGeometry x="-0.5" y="149" width="100" height="100" as="geometry">
            <mxPoint x="-0.5" y="249" as="sourcePoint"/>
            <mxPoint x="99.5" y="149" as="targetPoint"/>
          </mxGeometry>
        </mxCell>
        <mxCell id="1403" value="" style="edgeStyle=none;endArrow=none;strokeWidth=3;strokeColor=#F5AF58;html=1;" parent="1" source="1351" target="1391" edge="1">
          <mxGeometry x="-0.5" y="149" width="100" height="100" as="geometry">
            <mxPoint x="-0.5" y="249" as="sourcePoint"/>
            <mxPoint x="99.5" y="149" as="targetPoint"/>
          </mxGeometry>
        </mxCell>
        <mxCell id="1404" value="" style="edgeStyle=none;endArrow=none;strokeWidth=3;strokeColor=#F5AF58;html=1;" parent="1" source="1351" target="1392" edge="1">
          <mxGeometry x="-0.5" y="149" width="100" height="100" as="geometry">
            <mxPoint x="-0.5" y="249" as="sourcePoint"/>
            <mxPoint x="99.5" y="149" as="targetPoint"/>
          </mxGeometry>
        </mxCell>
        <mxCell id="1405" value="" style="edgeStyle=none;endArrow=none;strokeWidth=3;strokeColor=#F5AF58;html=1;" parent="1" source="1351" target="1393" edge="1">
          <mxGeometry x="-0.5" y="149" width="100" height="100" as="geometry">
            <mxPoint x="-0.5" y="249" as="sourcePoint"/>
            <mxPoint x="99.5" y="149" as="targetPoint"/>
          </mxGeometry>
        </mxCell>
        <mxCell id="1406" value="" style="edgeStyle=none;endArrow=none;strokeWidth=3;strokeColor=#F5AF58;html=1;entryX=0;entryY=0.5;entryDx=0;entryDy=0;" parent="1" source="1351" target="_AoqAwSx505wwbxLwA1B-1558" edge="1">
          <mxGeometry x="-0.5" y="149" width="100" height="100" as="geometry">
            <mxPoint x="-0.5" y="249" as="sourcePoint"/>
            <mxPoint x="1270.9285714285716" y="309" as="targetPoint"/>
          </mxGeometry>
        </mxCell>
        <mxCell id="1407" value="" style="edgeStyle=none;endArrow=none;strokeWidth=3;strokeColor=#F5AF58;html=1;" parent="1" source="1351" target="1395" edge="1">
          <mxGeometry x="-0.5" y="149" width="100" height="100" as="geometry">
            <mxPoint x="-0.5" y="249" as="sourcePoint"/>
            <mxPoint x="99.5" y="149" as="targetPoint"/>
          </mxGeometry>
        </mxCell>
        <mxCell id="1408" value="" style="edgeStyle=none;endArrow=none;strokeWidth=3;strokeColor=#F5AF58;html=1;" parent="1" source="1351" target="1396" edge="1">
          <mxGeometry x="-0.5" y="149" width="100" height="100" as="geometry">
            <mxPoint x="-0.5" y="249" as="sourcePoint"/>
            <mxPoint x="99.5" y="149" as="targetPoint"/>
          </mxGeometry>
        </mxCell>
        <mxCell id="1413" value="发布/修改视频" style="rounded=1;fillColor=#f08e81;strokeColor=none;strokeWidth=3;shadow=0;html=1;fontColor=#FFFFFF;" parent="1" vertex="1">
          <mxGeometry x="1681" y="411.5" width="120" height="40" as="geometry"/>
        </mxCell>
        <mxCell id="1414" value="充值记录查询" style="rounded=1;fillColor=#f08e81;strokeColor=none;strokeWidth=3;shadow=0;html=1;fontColor=#FFFFFF;" parent="1" vertex="1">
          <mxGeometry x="1720" y="309" width="120" height="40" as="geometry"/>
        </mxCell>
        <mxCell id="1415" value="提问管理" style="rounded=1;fillColor=#f08e81;strokeColor=none;strokeWidth=3;shadow=0;html=1;fontColor=#FFFFFF;" parent="1" vertex="1">
          <mxGeometry x="1781" y="206.5" width="120" height="40" as="geometry"/>
        </mxCell>
        <mxCell id="1416" value="用户管理" style="rounded=1;fillColor=#f08e81;strokeColor=none;strokeWidth=3;shadow=0;html=1;fontColor=#FFFFFF;" parent="1" vertex="1">
          <mxGeometry x="1921" y="161.5" width="120" height="40" as="geometry"/>
        </mxCell>
        <mxCell id="1417" value="测试管理" style="rounded=1;fillColor=#f08e81;strokeColor=none;strokeWidth=3;shadow=0;html=1;fontColor=#FFFFFF;" parent="1" vertex="1">
          <mxGeometry x="2090" y="226.5" width="120" height="40" as="geometry"/>
        </mxCell>
        <mxCell id="1424" value="" style="edgeStyle=none;endArrow=none;strokeWidth=3;strokeColor=#F08E81;html=1;" parent="1" source="1352" target="1413" edge="1">
          <mxGeometry x="243.5" y="48.5" width="100" height="100" as="geometry">
            <mxPoint x="243.5" y="148.5" as="sourcePoint"/>
            <mxPoint x="343.5" y="48.5" as="targetPoint"/>
          </mxGeometry>
        </mxCell>
        <mxCell id="1425" value="" style="edgeStyle=none;endArrow=none;strokeWidth=3;strokeColor=#F08E81;html=1;" parent="1" source="1352" target="1414" edge="1">
          <mxGeometry x="243.5" y="48.5" width="100" height="100" as="geometry">
            <mxPoint x="243.5" y="148.5" as="sourcePoint"/>
            <mxPoint x="343.5" y="48.5" as="targetPoint"/>
          </mxGeometry>
        </mxCell>
        <mxCell id="1426" value="" style="edgeStyle=none;endArrow=none;strokeWidth=3;strokeColor=#F08E81;html=1;" parent="1" source="1352" target="1415" edge="1">
          <mxGeometry x="243.5" y="48.5" width="100" height="100" as="geometry">
            <mxPoint x="243.5" y="148.5" as="sourcePoint"/>
            <mxPoint x="343.5" y="48.5" as="targetPoint"/>
          </mxGeometry>
        </mxCell>
        <mxCell id="1427" value="" style="edgeStyle=none;endArrow=none;strokeWidth=3;strokeColor=#F08E81;html=1;" parent="1" source="1352" target="1416" edge="1">
          <mxGeometry x="243.5" y="48.5" width="100" height="100" as="geometry">
            <mxPoint x="243.5" y="148.5" as="sourcePoint"/>
            <mxPoint x="343.5" y="48.5" as="targetPoint"/>
          </mxGeometry>
        </mxCell>
        <mxCell id="1428" value="" style="edgeStyle=none;endArrow=none;strokeWidth=3;strokeColor=#F08E81;html=1;" parent="1" source="1352" target="1417" edge="1">
          <mxGeometry x="243.5" y="48.5" width="100" height="100" as="geometry">
            <mxPoint x="243.5" y="148.5" as="sourcePoint"/>
            <mxPoint x="343.5" y="48.5" as="targetPoint"/>
          </mxGeometry>
        </mxCell>
        <mxCell id="1435" value="查看学生笔记" style="rounded=1;fillColor=#64BBE2;strokeColor=none;strokeWidth=3;shadow=0;html=1;fontColor=#FFFFFF;" parent="1" vertex="1">
          <mxGeometry x="1650" y="971.5" width="120" height="40" as="geometry"/>
        </mxCell>
        <mxCell id="1436" value="发布职位" style="rounded=1;fillColor=#64BBE2;strokeColor=none;strokeWidth=3;shadow=0;html=1;fontColor=#FFFFFF;" parent="1" vertex="1">
          <mxGeometry x="1867.5" y="761.5" width="120" height="40" as="geometry"/>
        </mxCell>
        <mxCell id="1437" value="查看学生学历旅程" style="rounded=1;fillColor=#64BBE2;strokeColor=none;strokeWidth=3;shadow=0;html=1;fontColor=#FFFFFF;" parent="1" vertex="1">
          <mxGeometry x="2013.5" y="788" width="120" height="40" as="geometry"/>
        </mxCell>
        <mxCell id="1438" value="职位与学生技能匹配" style="rounded=1;fillColor=#64BBE2;strokeColor=none;strokeWidth=3;shadow=0;html=1;fontColor=#FFFFFF;" parent="1" vertex="1">
          <mxGeometry x="2057.5" y="938" width="120" height="40" as="geometry"/>
        </mxCell>
        <mxCell id="1446" value="" style="edgeStyle=none;endArrow=none;strokeWidth=3;strokeColor=#64BBE2;html=1;" parent="1" source="1353" target="1435" edge="1">
          <mxGeometry x="-126.5" y="228" width="100" height="100" as="geometry">
            <mxPoint x="-126.5" y="328" as="sourcePoint"/>
            <mxPoint x="-26.5" y="228" as="targetPoint"/>
          </mxGeometry>
        </mxCell>
        <mxCell id="1447" value="" style="edgeStyle=none;endArrow=none;strokeWidth=3;strokeColor=#64BBE2;html=1;" parent="1" source="1353" target="1436" edge="1">
          <mxGeometry x="-126.5" y="228" width="100" height="100" as="geometry">
            <mxPoint x="-126.5" y="328" as="sourcePoint"/>
            <mxPoint x="-26.5" y="228" as="targetPoint"/>
          </mxGeometry>
        </mxCell>
        <mxCell id="1448" value="" style="edgeStyle=none;endArrow=none;strokeWidth=3;strokeColor=#64BBE2;html=1;" parent="1" source="1353" target="1437" edge="1">
          <mxGeometry x="-126.5" y="228" width="100" height="100" as="geometry">
            <mxPoint x="-126.5" y="328" as="sourcePoint"/>
            <mxPoint x="-26.5" y="228" as="targetPoint"/>
          </mxGeometry>
        </mxCell>
        <mxCell id="1449" value="" style="edgeStyle=none;endArrow=none;strokeWidth=3;strokeColor=#64BBE2;html=1;" parent="1" source="1353" target="1438" edge="1">
          <mxGeometry x="-126.5" y="228" width="100" height="100" as="geometry">
            <mxPoint x="-126.5" y="328" as="sourcePoint"/>
            <mxPoint x="-26.5" y="228" as="targetPoint"/>
          </mxGeometry>
        </mxCell>
        <mxCell id="1459" value="搜索" style="rounded=1;fillColor=#a29dc5;strokeColor=none;strokeWidth=3;shadow=0;html=1;fontColor=#FFFFFF;" parent="1" vertex="1">
          <mxGeometry x="2030" y="1246" width="120" height="40" as="geometry"/>
        </mxCell>
        <mxCell id="1461" value="相关新闻" style="rounded=1;fillColor=#a29dc5;strokeColor=none;strokeWidth=3;shadow=0;html=1;fontColor=#FFFFFF;" parent="1" vertex="1">
          <mxGeometry x="1759" y="1403.5" width="120" height="40" as="geometry"/>
        </mxCell>
        <mxCell id="1464" value="" style="edgeStyle=none;endArrow=none;strokeWidth=3;strokeColor=#A29DC5;html=1;" parent="1" source="1354" target="1461" edge="1">
          <mxGeometry x="480" y="28.5" width="100" height="100" as="geometry">
            <mxPoint x="480" y="128.5" as="sourcePoint"/>
            <mxPoint x="580" y="28.5" as="targetPoint"/>
          </mxGeometry>
        </mxCell>
        <mxCell id="1473" value="打赏积分" style="rounded=1;fillColor=#f5af58;strokeColor=none;strokeWidth=3;shadow=0;html=1;fontColor=#FFFFFF;" parent="1" vertex="1">
          <mxGeometry x="1390" y="1394" width="120" height="40" as="geometry"/>
        </mxCell>
        <mxCell id="1474" value="积分加直接购买" style="rounded=1;fillColor=#f5af58;strokeColor=none;strokeWidth=3;shadow=0;html=1;fontColor=#FFFFFF;" parent="1" vertex="1">
          <mxGeometry x="1191.5" y="1490" width="120" height="40" as="geometry"/>
        </mxCell>
        <mxCell id="1475" value="赞助商广告投放" style="rounded=1;fillColor=#f5af58;strokeColor=none;strokeWidth=3;shadow=0;html=1;fontColor=#FFFFFF;" parent="1" vertex="1">
          <mxGeometry x="961" y="1454" width="120" height="40" as="geometry"/>
        </mxCell>
        <mxCell id="1476" value="积分奖品展示" style="rounded=1;fillColor=#f5af58;strokeColor=none;strokeWidth=3;shadow=0;html=1;fontColor=#FFFFFF;" parent="1" vertex="1">
          <mxGeometry x="950" y="1349" width="120" height="40" as="geometry"/>
        </mxCell>
        <mxCell id="1477" value="积分收益规则" style="rounded=1;fillColor=#f5af58;strokeColor=none;strokeWidth=3;shadow=0;html=1;fontColor=#FFFFFF;" parent="1" vertex="1">
          <mxGeometry x="1021" y="1261.5" width="120" height="40" as="geometry"/>
        </mxCell>
        <mxCell id="1485" value="" style="edgeStyle=none;endArrow=none;strokeWidth=3;strokeColor=#F5AF58;html=1;" parent="1" source="1355" target="1473" edge="1">
          <mxGeometry x="243.5" y="39" width="100" height="100" as="geometry">
            <mxPoint x="243.5" y="139" as="sourcePoint"/>
            <mxPoint x="343.5" y="39" as="targetPoint"/>
          </mxGeometry>
        </mxCell>
        <mxCell id="1486" value="" style="edgeStyle=none;endArrow=none;strokeWidth=3;strokeColor=#F5AF58;html=1;" parent="1" source="1355" target="1474" edge="1">
          <mxGeometry x="243.5" y="39" width="100" height="100" as="geometry">
            <mxPoint x="243.5" y="139" as="sourcePoint"/>
            <mxPoint x="343.5" y="39" as="targetPoint"/>
          </mxGeometry>
        </mxCell>
        <mxCell id="1487" value="" style="edgeStyle=none;endArrow=none;strokeWidth=3;strokeColor=#F5AF58;html=1;" parent="1" source="1355" target="1475" edge="1">
          <mxGeometry x="243.5" y="39" width="100" height="100" as="geometry">
            <mxPoint x="243.5" y="139" as="sourcePoint"/>
            <mxPoint x="343.5" y="39" as="targetPoint"/>
          </mxGeometry>
        </mxCell>
        <mxCell id="1488" value="" style="edgeStyle=none;endArrow=none;strokeWidth=3;strokeColor=#F5AF58;html=1;" parent="1" source="1355" target="1476" edge="1">
          <mxGeometry x="243.5" y="39" width="100" height="100" as="geometry">
            <mxPoint x="243.5" y="139" as="sourcePoint"/>
            <mxPoint x="343.5" y="39" as="targetPoint"/>
          </mxGeometry>
        </mxCell>
        <mxCell id="1489" value="" style="edgeStyle=none;endArrow=none;strokeWidth=3;strokeColor=#F5AF58;html=1;" parent="1" source="1355" target="1477" edge="1">
          <mxGeometry x="243.5" y="39" width="100" height="100" as="geometry">
            <mxPoint x="243.5" y="139" as="sourcePoint"/>
            <mxPoint x="343.5" y="39" as="targetPoint"/>
          </mxGeometry>
        </mxCell>
        <mxCell id="1490" value="企业发布职位" style="rounded=1;fillColor=#f08e81;strokeColor=none;strokeWidth=3;shadow=0;html=1;fontColor=#FFFFFF;" parent="1" vertex="1">
          <mxGeometry x="443.5" y="1256" width="120" height="40" as="geometry"/>
        </mxCell>
        <mxCell id="1491" value="搜索职位" style="rounded=1;fillColor=#f08e81;strokeColor=none;strokeWidth=3;shadow=0;html=1;fontColor=#FFFFFF;" parent="1" vertex="1">
          <mxGeometry x="308.5" y="1261" width="120" height="40" as="geometry"/>
        </mxCell>
        <mxCell id="1492" value="公司职位横向对比图" style="rounded=1;fillColor=#f08e81;strokeColor=none;strokeWidth=3;shadow=0;html=1;fontColor=#FFFFFF;" parent="1" vertex="1">
          <mxGeometry x="214.5" y="1401" width="120" height="40" as="geometry"/>
        </mxCell>
        <mxCell id="1503" value="" style="edgeStyle=none;endArrow=none;strokeWidth=3;strokeColor=#F08E81;html=1;" parent="1" source="1356" target="1490" edge="1">
          <mxGeometry x="8.5" y="301" width="100" height="100" as="geometry">
            <mxPoint x="8.5" y="401" as="sourcePoint"/>
            <mxPoint x="108.5" y="301" as="targetPoint"/>
          </mxGeometry>
        </mxCell>
        <mxCell id="1504" value="" style="edgeStyle=none;endArrow=none;strokeWidth=3;strokeColor=#F08E81;html=1;" parent="1" source="1356" target="1491" edge="1">
          <mxGeometry x="8.5" y="301" width="100" height="100" as="geometry">
            <mxPoint x="8.5" y="401" as="sourcePoint"/>
            <mxPoint x="108.5" y="301" as="targetPoint"/>
          </mxGeometry>
        </mxCell>
        <mxCell id="1505" value="" style="edgeStyle=none;endArrow=none;strokeWidth=3;strokeColor=#F08E81;html=1;" parent="1" source="1356" target="1492" edge="1">
          <mxGeometry x="8.5" y="301" width="100" height="100" as="geometry">
            <mxPoint x="8.5" y="401" as="sourcePoint"/>
            <mxPoint x="108.5" y="301" as="targetPoint"/>
          </mxGeometry>
        </mxCell>
        <mxCell id="1514" style="edgeStyle=orthogonalEdgeStyle;rounded=0;html=1;exitX=0.75;exitY=0;entryX=0.75;entryY=0;startArrow=none;startFill=0;endArrow=block;endFill=1;jettySize=auto;orthogonalLoop=1;strokeColor=#12aab5;strokeWidth=6;fontSize=20;fontColor=#2F5B7C;" parent="1" source="1414" target="1414" edge="1">
          <mxGeometry relative="1" as="geometry"/>
        </mxCell>
        <mxCell id="1515" value="在线教育" style="ellipse;whiteSpace=wrap;html=1;shadow=0;fontFamily=Helvetica;fontSize=30;fontColor=#2F5B7C;align=center;strokeColor=#2F5B7C;strokeWidth=6;fillColor=#FFFFFF;fontStyle=1;gradientColor=none;" parent="1" vertex="1">
          <mxGeometry x="833.5" y="838" width="270" height="270" as="geometry"/>
        </mxCell>
        <mxCell id="1516" value="笔记" style="ellipse;whiteSpace=wrap;html=1;shadow=0;fontFamily=Helvetica;fontSize=20;fontColor=#FFFFFF;align=center;strokeWidth=3;fillColor=#736ca8;strokeColor=none;" parent="1" vertex="1">
          <mxGeometry x="251" y="948" width="120" height="120" as="geometry"/>
        </mxCell>
        <mxCell id="1517" value="Markdown笔记" style="rounded=1;fillColor=#a29dc5;strokeColor=none;strokeWidth=3;shadow=0;html=1;fontColor=#FFFFFF;" parent="1" vertex="1">
          <mxGeometry x="141" y="848" width="120" height="40" as="geometry"/>
        </mxCell>
        <mxCell id="1518" value="做笔记教学" style="rounded=1;fillColor=#a29dc5;strokeColor=none;strokeWidth=3;shadow=0;html=1;fontColor=#FFFFFF;" parent="1" vertex="1">
          <mxGeometry x="248.5" y="788" width="120" height="40" as="geometry"/>
        </mxCell>
        <mxCell id="1519" value="在线编辑" style="rounded=1;fillColor=#a29dc5;strokeColor=none;strokeWidth=3;shadow=0;html=1;fontColor=#FFFFFF;" parent="1" vertex="1">
          <mxGeometry x="388.5" y="798" width="120" height="40" as="geometry"/>
        </mxCell>
        <mxCell id="1520" value="转PDF文档" style="rounded=1;fillColor=#a29dc5;strokeColor=none;strokeWidth=3;shadow=0;html=1;fontColor=#FFFFFF;" parent="1" vertex="1">
          <mxGeometry x="453.5" y="868" width="120" height="40" as="geometry"/>
        </mxCell>
        <mxCell id="1521" value="查看排行榜" style="rounded=1;fillColor=#a29dc5;strokeColor=none;strokeWidth=3;shadow=0;html=1;fontColor=#FFFFFF;" parent="1" vertex="1">
          <mxGeometry x="69" y="943" width="120" height="40" as="geometry"/>
        </mxCell>
        <mxCell id="1528" value="" style="edgeStyle=none;endArrow=none;strokeWidth=3;strokeColor=#A29DC5;html=1;" parent="1" source="1516" target="1517" edge="1">
          <mxGeometry x="-1559" y="-77" width="100" height="100" as="geometry">
            <mxPoint x="-1559" y="23" as="sourcePoint"/>
            <mxPoint x="-1459" y="-77" as="targetPoint"/>
          </mxGeometry>
        </mxCell>
        <mxCell id="1530" value="" style="edgeStyle=none;endArrow=none;strokeWidth=3;strokeColor=#A29DC5;html=1;" parent="1" source="1516" target="1518" edge="1">
          <mxGeometry x="-1559" y="-77" width="100" height="100" as="geometry">
            <mxPoint x="-1559" y="23" as="sourcePoint"/>
            <mxPoint x="-1459" y="-77" as="targetPoint"/>
          </mxGeometry>
        </mxCell>
        <mxCell id="1531" value="" style="edgeStyle=none;endArrow=none;strokeWidth=3;strokeColor=#A29DC5;html=1;" parent="1" source="1516" target="1519" edge="1">
          <mxGeometry x="-1559" y="-77" width="100" height="100" as="geometry">
            <mxPoint x="-1559" y="23" as="sourcePoint"/>
            <mxPoint x="-1459" y="-77" as="targetPoint"/>
          </mxGeometry>
        </mxCell>
        <mxCell id="1532" value="" style="edgeStyle=none;endArrow=none;strokeWidth=3;strokeColor=#A29DC5;html=1;" parent="1" source="1516" target="1520" edge="1">
          <mxGeometry x="-1559" y="-77" width="100" height="100" as="geometry">
            <mxPoint x="-1559" y="23" as="sourcePoint"/>
            <mxPoint x="-1459" y="-77" as="targetPoint"/>
          </mxGeometry>
        </mxCell>
        <mxCell id="1533" value="" style="edgeStyle=none;endArrow=none;strokeWidth=3;strokeColor=#A29DC5;html=1;" parent="1" source="1516" target="1521" edge="1">
          <mxGeometry x="-1559" y="-77" width="100" height="100" as="geometry">
            <mxPoint x="-1559" y="23" as="sourcePoint"/>
            <mxPoint x="-1459" y="-77" as="targetPoint"/>
          </mxGeometry>
        </mxCell>
        <mxCell id="1541" value="" style="edgeStyle=none;endArrow=none;strokeWidth=3;strokeColor=#A29DC5;html=1;" parent="1" source="1354" target="1459" edge="1">
          <mxGeometry x="-945" y="-276.5" width="100" height="100" as="geometry">
            <mxPoint x="-945" y="-176.5" as="sourcePoint"/>
            <mxPoint x="-845" y="-276.5" as="targetPoint"/>
          </mxGeometry>
        </mxCell>
        <mxCell id="1542" style="edgeStyle=none;rounded=0;html=1;exitX=0.5;exitY=1;endArrow=none;endFill=0;jettySize=auto;orthogonalLoop=1;strokeColor=#736CA8;strokeWidth=2;fillColor=#64bbe2;fontSize=20;fontColor=#23445D;" parent="1" edge="1">
          <mxGeometry relative="1" as="geometry">
            <mxPoint x="76" y="998" as="sourcePoint"/>
            <mxPoint x="76" y="998" as="targetPoint"/>
          </mxGeometry>
        </mxCell>
        <mxCell id="_AoqAwSx505wwbxLwA1B-1542" value="收藏的职位" style="rounded=1;fillColor=#f5af58;strokeColor=none;strokeWidth=3;shadow=0;html=1;fontColor=#FFFFFF;" vertex="1" parent="1">
          <mxGeometry x="1319.5" y="106.5" width="120" height="40" as="geometry"/>
        </mxCell>
        <mxCell id="_AoqAwSx505wwbxLwA1B-1543" value="" style="edgeStyle=none;endArrow=none;strokeWidth=3;strokeColor=#F5AF58;html=1;entryX=0;entryY=0.75;entryDx=0;entryDy=0;exitX=0.5;exitY=0;exitDx=0;exitDy=0;" edge="1" parent="1" source="_AoqAwSx505wwbxLwA1B-1558" target="_AoqAwSx505wwbxLwA1B-1542">
          <mxGeometry x="13.5" y="31.5" width="100" height="100" as="geometry">
            <mxPoint x="1293.5" y="141.5" as="sourcePoint"/>
            <mxPoint x="1308.5" y="304.576923076923" as="targetPoint"/>
          </mxGeometry>
        </mxCell>
        <mxCell id="_AoqAwSx505wwbxLwA1B-1544" value="收藏的笔记" style="rounded=1;fillColor=#f5af58;strokeColor=none;strokeWidth=3;shadow=0;html=1;fontColor=#FFFFFF;" vertex="1" parent="1">
          <mxGeometry x="1521" y="106.5" width="120" height="40" as="geometry"/>
        </mxCell>
        <mxCell id="_AoqAwSx505wwbxLwA1B-1545" value="" style="edgeStyle=none;endArrow=none;strokeWidth=3;strokeColor=#F5AF58;html=1;entryX=0;entryY=0.5;entryDx=0;entryDy=0;exitX=1.025;exitY=0.418;exitDx=0;exitDy=0;exitPerimeter=0;" edge="1" parent="1" source="_AoqAwSx505wwbxLwA1B-1558" target="_AoqAwSx505wwbxLwA1B-1544">
          <mxGeometry x="23.5" y="41.5" width="100" height="100" as="geometry">
            <mxPoint x="1353.5" y="151.5" as="sourcePoint"/>
            <mxPoint x="1413.5" y="81.5" as="targetPoint"/>
          </mxGeometry>
        </mxCell>
        <mxCell id="_AoqAwSx505wwbxLwA1B-1558" value="我的收藏" style="ellipse;whiteSpace=wrap;html=1;shadow=0;fontFamily=Helvetica;fontSize=20;fontColor=#FFFFFF;align=center;strokeWidth=3;fillColor=#F08705;strokeColor=none;gradientColor=none;" vertex="1" parent="1">
          <mxGeometry x="1320.5" y="267" width="94" height="94" as="geometry"/>
        </mxCell>
        <mxCell id="_AoqAwSx505wwbxLwA1B-1559" value="积分和奖品兑换" style="rounded=1;fillColor=#f5af58;strokeColor=none;strokeWidth=3;shadow=0;html=1;fontColor=#FFFFFF;" vertex="1" parent="1">
          <mxGeometry x="1230" y="559" width="120" height="40" as="geometry"/>
        </mxCell>
        <mxCell id="_AoqAwSx505wwbxLwA1B-1560" value="" style="edgeStyle=none;endArrow=none;strokeWidth=3;strokeColor=#F5AF58;html=1;entryX=0.5;entryY=0;entryDx=0;entryDy=0;" edge="1" parent="1" source="1351" target="_AoqAwSx505wwbxLwA1B-1559">
          <mxGeometry x="9.5" y="159" width="100" height="100" as="geometry">
            <mxPoint x="1225.5007363721775" y="460.5387447585299" as="sourcePoint"/>
            <mxPoint x="1325.5" y="499" as="targetPoint"/>
          </mxGeometry>
        </mxCell>
        <mxCell id="_AoqAwSx505wwbxLwA1B-1561" value="积分和奖品兑换管理" style="rounded=1;fillColor=#f08e81;strokeColor=none;strokeWidth=3;shadow=0;html=1;fontColor=#FFFFFF;" vertex="1" parent="1">
          <mxGeometry x="2150" y="361.5" width="120" height="40" as="geometry"/>
        </mxCell>
        <mxCell id="_AoqAwSx505wwbxLwA1B-1564" value="" style="edgeStyle=none;endArrow=none;strokeWidth=3;strokeColor=#F08E81;html=1;exitX=0;exitY=0.75;exitDx=0;exitDy=0;" edge="1" parent="1" source="_AoqAwSx505wwbxLwA1B-1561" target="1352">
          <mxGeometry x="253.5" y="58.5" width="100" height="100" as="geometry">
            <mxPoint x="1933.3763398114606" y="401.306496936505" as="sourcePoint"/>
            <mxPoint x="1836.1627906976742" y="359" as="targetPoint"/>
          </mxGeometry>
        </mxCell>
        <mxCell id="_AoqAwSx505wwbxLwA1B-1568" value="新闻发布管理" style="rounded=1;fillColor=#F08E81;strokeColor=none;strokeWidth=3;shadow=0;html=1;fontColor=#FFFFFF;" vertex="1" parent="1">
          <mxGeometry x="1936" y="601.5" width="120" height="40" as="geometry"/>
        </mxCell>
        <mxCell id="_AoqAwSx505wwbxLwA1B-1570" value="非法关键字管理" style="rounded=1;fillColor=#F08E81;strokeColor=none;strokeWidth=3;shadow=0;html=1;fontColor=#FFFFFF;" vertex="1" parent="1">
          <mxGeometry x="2056" y="521.5" width="120" height="40" as="geometry"/>
        </mxCell>
        <mxCell id="_AoqAwSx505wwbxLwA1B-1572" value="分页" style="rounded=1;fillColor=#a29dc5;strokeColor=none;strokeWidth=3;shadow=0;html=1;fontColor=#FFFFFF;" vertex="1" parent="1">
          <mxGeometry x="1587.5" y="1318" width="120" height="40" as="geometry"/>
        </mxCell>
        <mxCell id="_AoqAwSx505wwbxLwA1B-1573" value="" style="edgeStyle=none;endArrow=none;strokeWidth=3;strokeColor=#A29DC5;html=1;" edge="1" parent="1" source="_AoqAwSx505wwbxLwA1B-1572" target="1354">
          <mxGeometry x="490" y="38.5" width="100" height="100" as="geometry">
            <mxPoint x="1836.0766467770995" y="1308.4287410694524" as="sourcePoint"/>
            <mxPoint x="1830.0810810810813" y="1413.5" as="targetPoint"/>
          </mxGeometry>
        </mxCell>
        <mxCell id="_AoqAwSx505wwbxLwA1B-1574" value="公告发布" style="rounded=1;fillColor=#F08E81;strokeColor=none;strokeWidth=3;shadow=0;html=1;fontColor=#FFFFFF;" vertex="1" parent="1">
          <mxGeometry x="1770" y="571.5" width="120" height="40" as="geometry"/>
        </mxCell>
        <mxCell id="_AoqAwSx505wwbxLwA1B-1576" value="APP进入广告管理" style="rounded=1;fillColor=#F08E81;strokeColor=none;strokeWidth=3;shadow=0;html=1;fontColor=#FFFFFF;" vertex="1" parent="1">
          <mxGeometry x="2170" y="301.5" width="120" height="40" as="geometry"/>
        </mxCell>
        <mxCell id="_AoqAwSx505wwbxLwA1B-1578" value="解锁禁言惩戒管理" style="rounded=1;fillColor=#F08E81;strokeColor=none;strokeWidth=3;shadow=0;html=1;fontColor=#FFFFFF;" vertex="1" parent="1">
          <mxGeometry x="2170" y="451.5" width="120" height="40" as="geometry"/>
        </mxCell>
        <mxCell id="_AoqAwSx505wwbxLwA1B-1580" value="" style="edgeStyle=none;endArrow=none;strokeWidth=3;strokeColor=#F08E81;html=1;" edge="1" parent="1" source="_AoqAwSx505wwbxLwA1B-1578" target="1352">
          <mxGeometry x="263.5" y="68.5" width="100" height="100" as="geometry">
            <mxPoint x="2160" y="401.5" as="sourcePoint"/>
            <mxPoint x="2047.977724503468" y="417.10061471438325" as="targetPoint"/>
          </mxGeometry>
        </mxCell>
        <mxCell id="_AoqAwSx505wwbxLwA1B-1581" value="" style="edgeStyle=none;endArrow=none;strokeWidth=3;strokeColor=#F08E81;html=1;exitX=0.5;exitY=0;exitDx=0;exitDy=0;" edge="1" parent="1" source="_AoqAwSx505wwbxLwA1B-1568" target="1352">
          <mxGeometry x="273.5" y="78.5" width="100" height="100" as="geometry">
            <mxPoint x="2180" y="467.99815243200123" as="sourcePoint"/>
            <mxPoint x="2047.0565290181753" y="438.08177775937975" as="targetPoint"/>
          </mxGeometry>
        </mxCell>
        <mxCell id="_AoqAwSx505wwbxLwA1B-1582" value="" style="edgeStyle=none;endArrow=none;strokeWidth=3;strokeColor=#F08E81;html=1;entryX=0.5;entryY=0;entryDx=0;entryDy=0;" edge="1" parent="1" source="1352" target="_AoqAwSx505wwbxLwA1B-1570">
          <mxGeometry x="283.5" y="88.5" width="100" height="100" as="geometry">
            <mxPoint x="1882.5" y="561.5" as="sourcePoint"/>
            <mxPoint x="1951.7602292606825" y="472.4361596887393" as="targetPoint"/>
          </mxGeometry>
        </mxCell>
        <mxCell id="_AoqAwSx505wwbxLwA1B-1583" value="" style="edgeStyle=none;endArrow=none;strokeWidth=3;strokeColor=#F08E81;html=1;" edge="1" parent="1" source="_AoqAwSx505wwbxLwA1B-1576" target="1352">
          <mxGeometry x="263.5" y="68.5" width="100" height="100" as="geometry">
            <mxPoint x="2160" y="401.5" as="sourcePoint"/>
            <mxPoint x="2047.977724503468" y="417.10061471438325" as="targetPoint"/>
          </mxGeometry>
        </mxCell>
        <mxCell id="_AoqAwSx505wwbxLwA1B-1584" value="" style="edgeStyle=none;endArrow=none;strokeWidth=3;strokeColor=#F08E81;html=1;exitX=0.575;exitY=-0.029;exitDx=0;exitDy=0;exitPerimeter=0;entryX=0.293;entryY=0.961;entryDx=0;entryDy=0;entryPerimeter=0;" edge="1" parent="1" source="_AoqAwSx505wwbxLwA1B-1574" target="1352">
          <mxGeometry x="283.5" y="88.5" width="100" height="100" as="geometry">
            <mxPoint x="2006" y="611.5" as="sourcePoint"/>
            <mxPoint x="1994.0871287983537" y="484.7393002285487" as="targetPoint"/>
          </mxGeometry>
        </mxCell>
        <mxCell id="_AoqAwSx505wwbxLwA1B-1587" value="站内招聘留言" style="rounded=1;fillColor=#64BBE2;strokeColor=none;strokeWidth=3;shadow=0;html=1;fontColor=#FFFFFF;" vertex="1" parent="1">
          <mxGeometry x="1910" y="1011.5" width="120" height="40" as="geometry"/>
        </mxCell>
        <mxCell id="_AoqAwSx505wwbxLwA1B-1588" value="" style="edgeStyle=none;endArrow=none;strokeWidth=3;strokeColor=#64BBE2;html=1;entryX=0.5;entryY=0;entryDx=0;entryDy=0;" edge="1" parent="1" source="1353" target="_AoqAwSx505wwbxLwA1B-1587">
          <mxGeometry x="-116.5" y="238" width="100" height="100" as="geometry">
            <mxPoint x="1961.6242022658603" y="922.8854664339397" as="sourcePoint"/>
            <mxPoint x="2067.5" y="951.9285714285713" as="targetPoint"/>
          </mxGeometry>
        </mxCell>
        <mxCell id="_AoqAwSx505wwbxLwA1B-1590" value="查看企业招聘留言" style="rounded=1;fillColor=#f5af58;strokeColor=none;strokeWidth=3;shadow=0;html=1;fontColor=#FFFFFF;" vertex="1" parent="1">
          <mxGeometry x="1131.5" y="650" width="120" height="40" as="geometry"/>
        </mxCell>
        <mxCell id="_AoqAwSx505wwbxLwA1B-1591" value="" style="edgeStyle=none;endArrow=none;strokeWidth=3;strokeColor=#F5AF58;html=1;" edge="1" parent="1" source="1351" target="_AoqAwSx505wwbxLwA1B-1590">
          <mxGeometry x="19.5" y="169" width="100" height="100" as="geometry">
            <mxPoint x="1212.3774829004474" y="502.66277963757193" as="sourcePoint"/>
            <mxPoint x="1300" y="569" as="targetPoint"/>
          </mxGeometry>
        </mxCell>
        <mxCell id="_AoqAwSx505wwbxLwA1B-1592" value="成功案例" style="rounded=1;fillColor=#f08e81;strokeColor=none;strokeWidth=3;shadow=0;html=1;fontColor=#FFFFFF;" vertex="1" parent="1">
          <mxGeometry x="628.5" y="1431" width="120" height="40" as="geometry"/>
        </mxCell>
        <mxCell id="_AoqAwSx505wwbxLwA1B-1593" value="" style="edgeStyle=none;endArrow=none;strokeWidth=3;strokeColor=#F08E81;html=1;exitX=1;exitY=0.5;exitDx=0;exitDy=0;" edge="1" parent="1" source="1356" target="_AoqAwSx505wwbxLwA1B-1592">
          <mxGeometry x="18.5" y="311" width="100" height="100" as="geometry">
            <mxPoint x="484.8476573457856" y="1441.9887440389266" as="sourcePoint"/>
            <mxPoint x="509.825581395349" y="1306" as="targetPoint"/>
          </mxGeometry>
        </mxCell>
        <mxCell id="_AoqAwSx505wwbxLwA1B-1594" value="同城协助威客" style="rounded=1;fillColor=#f08e81;strokeColor=none;strokeWidth=3;shadow=0;html=1;fontColor=#FFFFFF;" vertex="1" parent="1">
          <mxGeometry x="323.5" y="1540" width="120" height="40" as="geometry"/>
        </mxCell>
        <mxCell id="_AoqAwSx505wwbxLwA1B-1595" value="" style="edgeStyle=none;endArrow=none;strokeWidth=3;strokeColor=#F08E81;html=1;" edge="1" parent="1" source="1356" target="_AoqAwSx505wwbxLwA1B-1594">
          <mxGeometry x="28.5" y="321" width="100" height="100" as="geometry">
            <mxPoint x="539.9999999999973" y="1411" as="sourcePoint"/>
            <mxPoint x="638.5" y="1442.0725552050476" as="targetPoint"/>
          </mxGeometry>
        </mxCell>
      </root>
    </mxGraphModel>
  </diagram>
</mxfile>
